<svg width="105" height="24" viewBox="0 0 105 24" fill="none" xmlns="http://www.w3.org/2000/svg">
<path d="M50.3737 17.7693L50.3571 9.29544L46.1534 16.357H45.3891L41.1854 9.34529V17.7693H39.5903V6.13852H40.9528L45.8045 14.3133L50.5897 6.13852H51.9522L51.9688 17.7693H50.3737ZM64.5368 17.869C63.6618 17.869 62.8753 17.6751 62.1775 17.2874C61.4796 16.8997 60.9313 16.3681 60.5325 15.6924C60.1448 15.0056 59.951 14.2302 59.951 13.3662C59.951 12.5022 60.1448 11.7324 60.5325 11.0567C60.9313 10.3699 61.4796 9.83821 62.1775 9.46159C62.8753 9.0739 63.6618 8.88006 64.5368 8.88006C65.4119 8.88006 66.1928 9.0739 66.8796 9.46159C67.5775 9.83821 68.1202 10.3699 68.5079 11.0567C68.9067 11.7324 69.1061 12.5022 69.1061 13.3662C69.1061 14.2302 68.9067 15.0056 68.5079 15.6924C68.1202 16.3681 67.5775 16.8997 66.8796 17.2874C66.1928 17.6751 65.4119 17.869 64.5368 17.869ZM64.5368 16.4733C65.1018 16.4733 65.6058 16.3459 66.0488 16.0911C66.503 15.8253 66.8575 15.4597 67.1122 14.9945C67.367 14.5182 67.4944 13.9754 67.4944 13.3662C67.4944 12.757 67.367 12.2197 67.1122 11.7545C66.8575 11.2782 66.503 10.9127 66.0488 10.6579C65.6058 10.4031 65.1018 10.2757 64.5368 10.2757C63.9719 10.2757 63.4624 10.4031 63.0082 10.6579C62.5652 10.9127 62.2107 11.2782 61.9448 11.7545C61.6901 12.2197 61.5627 12.757 61.5627 13.3662C61.5627 13.9754 61.6901 14.5182 61.9448 14.9945C62.2107 15.4597 62.5652 15.8253 63.0082 16.0911C63.4624 16.3459 63.9719 16.4733 64.5368 16.4733ZM80.2733 13.6653L78.4456 15.3601V17.7693H76.8505V5.44067H78.4456V13.3496L83.2474 8.96313H85.1748L81.4696 12.6019L85.5403 17.7693H83.5797L80.2733 13.6653ZM102.863 6.13852V17.7693H101.5L94.5217 9.09606V17.7693H92.8602V6.13852H94.2226L101.201 14.8117V6.13852H102.863Z" fill="white"/>
<circle cx="14.7692" cy="2.76923" r="2.76923" fill="white"/>
<circle cx="23.0759" cy="21.2308" r="2.76923" fill="white"/>
<circle cx="6.46064" cy="21.2308" r="2.76923" fill="white"/>
<rect y="9.23071" width="29.5385" height="5.53846" rx="2.76923" fill="#FF0137"/>
</svg>
