<svg width="28" height="29" viewBox="0 0 28 29" fill="none" xmlns="http://www.w3.org/2000/svg">
<foreignObject x="-2.01406" y="-3.61245" width="32.0242" height="36.225"><div xmlns="http://www.w3.org/1999/xhtml" style="backdrop-filter:blur(3.02px);clip-path:url(#bgblur_0_5920_13890_clip_path);height:100%;width:100%"></div></foreignObject><g data-figma-bg-blur-radius="6.0375">
<path d="M21.4767 16.8392C20.2943 16.248 18.9026 16.248 17.7201 16.8392L16.0984 17.65V21.5525C16.0984 22.6084 17.344 23.8097 19.5984 25.2334C21.8528 23.8097 23.0984 22.9 23.0984 21.5525C23.0984 20.205 23.0984 17.65 23.0984 17.65L21.4767 16.8392Z" fill="white" fill-opacity="0.12"/>
<path d="M11.8984 25.7H9.09844C6.77884 25.7 4.89844 23.8196 4.89844 21.5V7.50005C4.89844 5.18045 6.77884 3.30005 9.09844 3.30005H18.8984C21.218 3.30005 23.0984 5.18045 23.0984 7.50005V11M18.1984 8.90005H9.09844M13.9984 13.1H9.09844M11.8984 17.3H9.09844M16.0984 17.65L17.7201 16.8392C18.9026 16.248 20.2943 16.248 21.4767 16.8392L23.0984 17.65C23.0984 17.65 23.0984 20.205 23.0984 21.5525C23.0984 22.9 21.8528 23.8097 19.5984 25.2334C17.344 23.8097 16.0984 22.6084 16.0984 21.5525V17.65Z" stroke="white" stroke-width="1.75"/>
</g>
<defs>
<clipPath id="bgblur_0_5920_13890_clip_path" transform="translate(2.01406 3.61245)"><path d="M21.4767 16.8392C20.2943 16.248 18.9026 16.248 17.7201 16.8392L16.0984 17.65V21.5525C16.0984 22.6084 17.344 23.8097 19.5984 25.2334C21.8528 23.8097 23.0984 22.9 23.0984 21.5525C23.0984 20.205 23.0984 17.65 23.0984 17.65L21.4767 16.8392Z"/>
</clipPath></defs>
</svg>
